<?xml version="1.0" standalone="no"?>
<!DOCTYPE svg PUBLIC "-//W3C//DTD SVG 20010904//EN"
 "http://www.w3.org/TR/2001/REC-SVG-20010904/DTD/svg10.dtd">
<svg version="1.0" xmlns="http://www.w3.org/2000/svg"
 width="512.000000pt" height="512.000000pt" viewBox="0 0 512.000000 512.000000"
 preserveAspectRatio="xMidYMid meet">

<g transform="translate(0.000000,512.000000) scale(0.100000,-0.100000)"
fill="green" stroke="none">
<path d="M1381 4629 c-106 -21 -203 -103 -238 -202 -17 -50 -18 -140 -18
-1947 0 -2171 -10 -1957 94 -2061 103 -102 -21 -94 1421 -94 1442 0 1318 -8
1421 94 103 103 94 -45 97 1548 l2 1392 -447 3 -448 3 -50 27 c-66 35 -118 90
-149 158 l-26 55 0 518 0 517 -807 -1 c-445 -1 -828 -5 -852 -10z m2139 -2709
l0 -1120 -880 0 -880 0 0 1120 0 1120 880 0 880 0 0 -1120z"/>
<path d="M1920 2560 l0 -160 320 0 320 0 0 160 0 160 -320 0 -320 0 0 -160z"/>
<path d="M2720 2560 l0 -160 320 0 320 0 0 160 0 160 -320 0 -320 0 0 -160z"/>
<path d="M1920 2080 l0 -160 320 0 320 0 0 160 0 160 -320 0 -320 0 0 -160z"/>
<path d="M2720 2080 l0 -160 320 0 320 0 0 160 0 160 -320 0 -320 0 0 -160z"/>
<path d="M1920 1600 l0 -160 320 0 320 0 0 160 0 160 -320 0 -320 0 0 -160z"/>
<path d="M2720 1600 l0 -160 320 0 320 0 0 160 0 160 -320 0 -320 0 0 -160z"/>
<path d="M1920 1120 l0 -160 320 0 320 0 0 160 0 160 -320 0 -320 0 0 -160z"/>
<path d="M2720 1120 l0 -160 320 0 320 0 0 160 0 160 -320 0 -320 0 0 -160z"/>
<path d="M3200 4154 c0 -298 4 -493 10 -516 14 -48 61 -95 110 -108 24 -6 184
-9 434 -8 l396 3 -438 510 c-240 281 -454 531 -474 555 l-38 44 0 -480z"/>
</g>
</svg>
